<?xml version="1.0" encoding="utf-8"?>
<!-- Generator: Adobe Illustrator 21.1.0, SVG Export Plug-In . SVG Version: 6.00 Build 0)  -->
<svg version="1.1" id="Capa_1" xmlns="http://www.w3.org/2000/svg" xmlns:xlink="http://www.w3.org/1999/xlink" x="0px" y="0px"
	 viewBox="0 0 380.6 380.6" style="enable-background:new 0 0 380.6 380.6;" xml:space="preserve">
<style type="text/css">
	.st0{fill:#F6F4E4;}
</style>
<g>
	<g>
		<path class="st0" d="M76.7,0.8C34.4,0.8,0,28.4,0,62.4s34.4,61.7,76.7,61.7c4.7,0,9.5-0.3,14.2-1l27.9,25.6c1.1,1,2.6,1.6,4.1,1.6
			c0.8,0,1.6-0.2,2.4-0.5c2.2-1,3.6-3.1,3.6-5.5v-36.6c14.9-10.3,24.1-27.1,24.6-45.2C153.4,28.4,119,0.8,76.7,0.8z M119.5,99.6
			c-1.8,1-2.9,2.9-3,5v26l-19.7-18c-1.1-1-2.6-1.6-4.1-1.6h-1c-5,0.9-10,1.4-15,1.4C41,112.1,12,89.8,12,62.4s29-49.7,64.7-49.7
			s64.7,22.3,64.7,49.7C140.8,77.7,132.6,91.7,119.5,99.6z"/>
	</g>
</g>
<g>
	<g>
		<path class="st0" d="M304,0.6c-42.3,0-76.7,27.7-76.7,61.7c0.5,18.1,9.6,34.9,24.6,45.2v37.1c0,2.4,1.4,4.6,3.6,5.5
			c0.8,0.3,1.6,0.5,2.4,0.5c1.5,0,3-0.6,4.1-1.6l27.9-25.6c4.7,0.7,9.4,1,14.2,1c42.2-0.3,76.6-27.8,76.6-62S346.2,0.6,304,0.6z
			 M304,112.1V112c-5,0-10.1-0.5-15-1.4c-1.8-0.4-3.7,0.2-5.1,1.4l-20,18.3v-25.8c0-2-1-3.8-2.6-5c-13.1-8-21.3-21.9-21.9-37.2
			c0-27.4,29-49.7,64.7-49.7s64.7,22.3,64.7,49.7S339.7,112.1,304,112.1z"/>
	</g>
</g>
<g>
	<g>
		<path class="st0" d="M117,164.5c-25.1,0-45.5,20.4-45.5,45.5c0,25.1,20.4,45.5,45.5,45.5s45.5-20.4,45.5-45.5
			S142.1,164.5,117,164.5z M117,243.6c-18.5,0-33.6-14.9-33.6-33.4s14.9-33.6,33.4-33.6c0.1,0,0.1,0,0.2,0c18.5,0,33.4,15,33.5,33.4
			h-0.1C150.5,228.6,135.6,243.6,117,243.6z"/>
	</g>
</g>
<g>
	<g>
		<path class="st0" d="M164.6,262h-1.4l-46.3,11.8l-48-11.8h-1.4c-8.2,0.1-14.8,6.8-14.8,15v88c0,8.3,6.7,15,15,15h97
			c8.3,0,15-6.7,15-15v-88C179.5,268.7,172.8,262,164.6,262z M164.6,368H67.8c-1.6,0-3-1.3-3-3v-88c0-1.4,1-2.6,2.4-2.9l48,11.9
			c0.9,0.2,1.9,0.2,2.9,0l46.8-11.8c1.4,0.3,2.4,1.5,2.4,2.9l0.2,87.9C167.5,366.6,166.2,368,164.6,368z"/>
	</g>
</g>
<g>
	<g>
		<path class="st0" d="M265.2,164.5c-25.1,0-45.5,20.4-45.5,45.5s20.4,45.5,45.5,45.5c25.1,0,45.5-20.4,45.5-45.5
			C310.7,184.9,290.3,164.5,265.2,164.5z M265.2,243.6c-18.5,0-33.5-15-33.5-33.5c0-18.5,15-33.5,33.5-33.5s33.5,15,33.5,33.5
			S283.7,243.6,265.2,243.6z"/>
	</g>
</g>
<g>
	<g>
		<path class="st0" d="M312.9,262h-1.4l-46.2,11.8l-48-11.8h-1.4c-8.3,0-15,6.7-15,15v88c0,8.3,6.7,15,15,15h97.1
			c8.3,0,15-6.7,15-15v-88C327.8,268.7,321.1,262,312.9,262z M312.9,368h-97c-1.6,0-3-1.3-3-3v-88c0-1.4,1-2.6,2.4-2.9l48,11.9
			c0.9,0.2,1.9,0.2,2.9,0l46.8-11.8c1.4,0.3,2.4,1.5,2.4,2.9l0.4,87.9C315.8,366.6,314.5,368,312.9,368z"/>
	</g>
</g>
</svg>
