<?xml version="1.0" encoding="utf-8"?>
<!-- Generator: Adobe Illustrator 21.1.0, SVG Export Plug-In . SVG Version: 6.00 Build 0)  -->
<svg version="1.1" id="Capa_1" xmlns="http://www.w3.org/2000/svg" xmlns:xlink="http://www.w3.org/1999/xlink" x="0px" y="0px"
	 viewBox="0 0 512 512" style="enable-background:new 0 0 512 512;" xml:space="preserve">
<style type="text/css">
	.st0{fill:#F6F4E4;}
</style>
<g>
	<path class="st0" d="M486.8,121.1h-82.7c-4.2,0-7.5,3.4-7.5,7.5s3.4,7.5,7.5,7.5h82.7c5.6,0,10.2,4.6,10.2,10.2v310.4
		c0,5.6-4.6,10.1-10.2,10.1H25.2c-5.6,0-10.2-4.6-10.2-10.1V146.2c0-5.6,4.6-10.2,10.2-10.2h348.9c4.2,0,7.5-3.4,7.5-7.5
		s-3.4-7.5-7.5-7.5H25.2C11.3,121.1,0,132.4,0,146.2v310.4c0,13.9,11.3,25.2,25.2,25.2h461.6c13.9,0,25.2-11.3,25.2-25.2V146.2
		C512,132.4,500.7,121.1,486.8,121.1z"/>
	<path class="st0" d="M223.8,432.3c0,4.2,3.4,7.5,7.5,7.5h229c4.2,0,7.5-3.4,7.5-7.5V170.6c0-4.2-3.4-7.5-7.5-7.5H112
		c-4.2,0-7.5,3.4-7.5,7.5v261.6c0,4.2,3.4,7.5,7.5,7.5h89.3c4.2,0,7.5-3.4,7.5-7.5c0-4.2-3.4-7.5-7.5-7.5h-81.8V178.2h333.3v246.6
		H231.3C227.2,424.8,223.8,428.1,223.8,432.3z"/>
	<path class="st0" d="M60.9,274.9c-14.7,0-26.6,11.9-26.6,26.6s11.9,26.6,26.6,26.6s26.6-11.9,26.6-26.6
		C87.5,286.8,75.6,274.9,60.9,274.9z M60.9,313c-6.4,0-11.6-5.2-11.6-11.6s5.2-11.6,11.6-11.6c6.4,0,11.6,5.2,11.6,11.6
		C72.5,307.8,67.3,313,60.9,313z"/>
	<path class="st0" d="M46.1,256.3h29.7c4.2,0,7.5-3.4,7.5-7.5s-3.4-7.5-7.5-7.5H46.1c-4.2,0-7.5,3.4-7.5,7.5S41.9,256.3,46.1,256.3z
		"/>
	<path class="st0" d="M46.1,227h29.7c4.2,0,7.5-3.4,7.5-7.5c0-4.2-3.4-7.5-7.5-7.5H46.1c-4.2,0-7.5,3.4-7.5,7.5
		C38.6,223.6,41.9,227,46.1,227z"/>
	<path class="st0" d="M46.1,197.7h29.7c4.2,0,7.5-3.4,7.5-7.5s-3.4-7.5-7.5-7.5H46.1c-4.2,0-7.5,3.4-7.5,7.5S41.9,197.7,46.1,197.7z
		"/>
	<path class="st0" d="M75.8,346.7H46.1c-4.2,0-7.5,3.4-7.5,7.5s3.4,7.5,7.5,7.5h29.7c4.2,0,7.5-3.4,7.5-7.5
		C83.3,350,79.9,346.7,75.8,346.7z"/>
	<path class="st0" d="M75.8,376H46.1c-4.2,0-7.5,3.4-7.5,7.5c0,4.2,3.4,7.5,7.5,7.5h29.7c4.2,0,7.5-3.4,7.5-7.5
		C83.3,379.3,79.9,376,75.8,376z"/>
	<path class="st0" d="M75.8,405.2H46.1c-4.2,0-7.5,3.4-7.5,7.5c0,4.2,3.4,7.5,7.5,7.5h29.7c4.2,0,7.5-3.4,7.5-7.5
		C83.3,408.6,79.9,405.2,75.8,405.2z"/>
	<path class="st0" d="M167.2,199.8h-16.4c-4.2,0-7.5,3.4-7.5,7.5v16.4c0,4.2,3.4,7.5,7.5,7.5c4.2,0,7.5-3.4,7.5-7.5v-8.9h8.9
		c4.2,0,7.5-3.4,7.5-7.5C174.7,203.2,171.4,199.8,167.2,199.8z"/>
	<path class="st0" d="M421.5,231.2c4.2,0,7.5-3.4,7.5-7.5v-16.4c0-4.2-3.4-7.5-7.5-7.5h-16.4c-4.2,0-7.5,3.4-7.5,7.5
		s3.4,7.5,7.5,7.5h8.9v8.9C414,227.9,417.3,231.2,421.5,231.2z"/>
	<path class="st0" d="M150.9,371.7c-4.2,0-7.5,3.4-7.5,7.5v16.4c0,4.2,3.4,7.5,7.5,7.5h16.4c4.2,0,7.5-3.4,7.5-7.5
		c0-4.2-3.4-7.5-7.5-7.5h-8.9v-8.9C158.4,375,155,371.7,150.9,371.7z"/>
	<path class="st0" d="M405.1,403.1h16.4c4.2,0,7.5-3.4,7.5-7.5v-16.4c0-4.2-3.4-7.5-7.5-7.5c-4.2,0-7.5,3.4-7.5,7.5v8.9h-8.9
		c-4.2,0-7.5,3.4-7.5,7.5C397.6,399.7,400.9,403.1,405.1,403.1z"/>
	<path class="st0" d="M27.5,90.5h17.1c0.9,3.1,3.8,5.4,7.2,5.4H450c1.1,0,2.2-0.2,3.2-0.7l54.5-25.4c2.7-1.2,4.3-3.9,4.3-6.8
		s-1.7-5.6-4.3-6.8l-54.5-25.4c-1-0.5-2.1-0.7-3.2-0.7H143.9c-4.2,0-7.5,3.4-7.5,7.5s3.4,7.5,7.5,7.5h134.7v35.7H59.3V45.2h54.6
		c4.2,0,7.5-3.4,7.5-7.5s-3.4-7.5-7.5-7.5H51.8c-3.4,0-6.3,2.3-7.2,5.4H27.5C12.3,35.5,0,47.8,0,63S12.3,90.5,27.5,90.5z M454,47.8
		L486.7,63L454,78.2V47.8z M293.7,45.2H439v35.7H293.7V45.2z M27.5,50.5h16.7v25H27.5C20.6,75.5,15,69.9,15,63S20.6,50.5,27.5,50.5z
		"/>
</g>
</svg>
