<?xml version="1.0" encoding="utf-8"?>
<!-- Generator: Adobe Illustrator 21.1.0, SVG Export Plug-In . SVG Version: 6.00 Build 0)  -->
<svg version="1.1" id="Capa_1" xmlns="http://www.w3.org/2000/svg" xmlns:xlink="http://www.w3.org/1999/xlink" x="0px" y="0px"
	 viewBox="0 0 512 512" style="enable-background:new 0 0 512 512;" xml:space="preserve">
<style type="text/css">
	.st0{fill:#F6F4E4;}
</style>
<g>
	<path class="st0" d="M52.2,296.9c4.9,17.2,17.3,31.7,33.9,39c1,0.4,2,0.6,3,0.6c1,0,2.1-0.2,3-0.6c16.6-7.3,29-21.9,33.9-39.1
		c4.9,2,9.4,4.8,13.3,8.4c3,2.8,7.8,2.6,10.6-0.4c2.8-3,2.6-7.8-0.4-10.6c-7.8-7.2-17.2-12-27.4-14.2c-0.1,0-0.2,0-0.2-0.1
		c-0.1,0-0.3,0-0.4-0.1c-0.7-0.1-1.4-0.3-2.1-0.4c-0.3,0-0.5-0.1-0.8-0.1c-0.7-0.1-1.4-0.2-2.2-0.3c-0.3,0-0.5-0.1-0.8-0.1
		c-0.7-0.1-1.5-0.1-2.3-0.2c-0.2,0-0.5,0-0.7-0.1c-1,0-2-0.1-2.9-0.1c0,0,0,0,0,0l0,0H68.5c-3.1,0-6.2,0.2-9.2,0.7
		c-0.1,0-0.2,0-0.3,0.1c-0.9,0.1-1.7,0.3-2.6,0.5c0,0-0.1,0-0.1,0c-0.1,0-0.1,0-0.2,0c-26.5,5.7-46.4,29.3-46.4,57.5v49.6
		c0,6.3,5.2,11.5,11.5,11.5h100.3c4.1,0,7.5-3.4,7.5-7.5s-3.4-7.5-7.5-7.5H24.7v-46.1C24.7,319.1,36.1,303.3,52.2,296.9z
		 M109.7,293.7c0.5,0,1.1,0,1.6,0c-3.5,11.5-11.6,21.3-22.2,27c-10.7-5.7-18.7-15.5-22.2-27c0.5,0,1.1,0,1.6,0H109.7z"/>
	<path class="st0" d="M50.1,130c11.2-8.9,24.7-13.6,39-13.6c15.4,0,30.2,5.7,41.7,15.9c1.4,1.3,3.2,1.9,5,1.9c2.1,0,4.1-0.8,5.6-2.5
		c2.8-3.1,2.5-7.8-0.6-10.6c-14.2-12.7-32.6-19.8-51.7-19.8c-17.5,0-34.7,6-48.4,16.9c-3.2,2.6-3.8,7.3-1.2,10.5
		C42.1,132.1,46.9,132.6,50.1,130z"/>
	<path class="st0" d="M89.1,268.3c10.1,0,19.7-2.6,28.1-7.1H142c4.1,0,7.5-3.4,7.5-7.5c0-4.1-3.4-7.5-7.5-7.5h-6.8
		c8.3-10.2,13.2-23.2,13.2-37.3V198c0-4.1-3.4-7.5-7.5-7.5H84.7c-3.9,0-7.6-1.2-10.8-3.4c-3.2-2.2-5.6-5.3-6.9-9
		c-3.5-9.5-12.7-15.9-22.8-15.9h-6.6c-3.8,0-7,2.9-7.5,6.7c-0.2,2.1-0.4,4.2-0.4,6.2v33.8c0,14.1,5,27.1,13.2,37.3H20.6
		c3.7-9.2,6-20.4,6-29.2v-38.2c0-9.8,2.2-19.3,6.6-28c1.9-3.7,0.4-8.2-3.3-10.1c-3.7-1.9-8.2-0.4-10.1,3.3
		c-5.4,10.8-8.2,22.5-8.2,34.7v38.2c0,12.7-5.7,27.7-9.3,31.3c-2.2,2.1-2.9,5.4-1.7,8.2c1.1,2.8,3.9,4.7,6.9,4.7H61
		C69.4,265.7,78.9,268.3,89.1,268.3z M44.7,177.2c3.7,0.2,6.9,2.6,8.2,6.1c2.4,6.5,6.7,12.1,12.4,16.1c5.7,4,12.4,6.1,19.4,6.1h48.8
		v3.4c0,24.5-19.9,44.4-44.4,44.4s-44.4-19.9-44.4-44.4C44.7,208.9,44.7,177.2,44.7,177.2z"/>
	<path class="st0" d="M459.8,280c-0.1,0-0.1,0-0.2,0c0,0-0.1,0-0.1,0c-0.9-0.2-1.7-0.3-2.6-0.5c-0.1,0-0.2,0-0.4-0.1
		c-3-0.5-6-0.7-9.2-0.7h-41.2c-1,0-2,0-3,0.1c-0.1,0-0.1,0-0.2,0c-14.5,0.8-28,6.8-38.3,17.1c-2.9,2.9-2.9,7.7,0,10.6
		c2.9,2.9,7.7,2.9,10.6,0c4.3-4.3,9.2-7.5,14.6-9.7c4.9,17.2,17.3,31.7,33.9,39.1c1,0.4,2,0.6,3,0.6s2.1-0.2,3-0.6
		c16.6-7.3,29-21.9,33.9-39c16.1,6.5,27.5,22.2,27.5,40.6v46.1H390.9c-4.1,0-7.5,3.4-7.5,7.5s3.4,7.5,7.5,7.5h103.8
		c6.3,0,11.5-5.2,11.5-11.5v-49.6C506.2,309.3,486.3,285.7,459.8,280z M426.8,320.7c-10.7-5.7-18.7-15.5-22.2-27c0.5,0,1.1,0,1.6,0
		h41.2c0.5,0,1.1,0,1.6,0C445.4,305.2,437.4,315,426.8,320.7z"/>
	<path class="st0" d="M426.8,268.3c15.3,0,29.2-5.8,39.7-15.3c3.9,1.5,8,2.3,12.2,2.3c18.4,0,33.3-15,33.3-33.3
		c0-15.8-11.1-29.1-25.8-32.5v-14.4c0-8.6-2-16.8-5.5-24.1c-9-18.6-28.1-31.5-50.1-31.5H423c-30.7,0-55.6,25-55.6,55.6v0v13v20.8
		C367.4,241.7,394,268.3,426.8,268.3z M497,222c0,10.1-8.2,18.3-18.3,18.3c-0.5,0-1,0-1.5-0.1c5.6-9,8.9-19.6,9-31
		c0-0.1,0-0.1,0-0.2v-3.8C492.5,208.2,497,214.6,497,222z M423,134.5h7.6c16.8,0,31.2,10.2,37.4,24.8c2.1,4.9,3.2,10.2,3.2,15.8v21
		c0,0,0,0,0,0s0,0,0,0v4.5c-59.1-7.7-65.4-38.1-65.6-39.4c-0.5-3.8-3.7-6.4-7.4-6.4c-0.2,0-0.3,0-0.5,0c-3.9,0.3-7,3.6-7,7.6v18.1
		h-8.3v-5.5C382.4,152.7,400.6,134.5,423,134.5z M382.4,195.6h15.8c3.8,0,7-2.9,7.4-6.6c11.3,11.1,30.9,22.5,65,26.8
		c-3.3,21.2-21.7,37.6-43.9,37.6c-24.5,0-44.4-19.9-44.4-44.4L382.4,195.6L382.4,195.6z"/>
	<path class="st0" d="M357,179.8c1.6-7.4,2.5-15,2.5-22.6c0-15-3.1-29.5-9.3-43c-1.7-3.8-6.2-5.4-9.9-3.7s-5.4,6.2-3.7,9.9
		c5.3,11.6,8,23.9,8,36.8c0,6.5-0.7,13-2.1,19.4c0,0,0,0.1,0,0.1c-13.6,66-16.6,84.5-5.8,131.5c-4.8-3.8-10.1-7.1-15.7-9.7
		c-0.1-0.1-0.2-0.1-0.3-0.2c-0.8-0.4-1.6-0.7-2.4-1.1c-0.1,0-0.2-0.1-0.3-0.1c-4.9-2.1-10-3.6-15.2-4.7c0,0,0,0,0,0
		c-1.3-0.3-2.7-0.5-4-0.7c0,0,0,0,0,0c-1.3-0.2-2.7-0.4-4-0.5c0,0-0.1,0-0.1,0c-1.4-0.1-2.7-0.2-4.1-0.3c0,0-0.1,0-0.1,0
		c-1.4-0.1-2.8-0.1-4.2-0.1h-0.4h-59.1H226c-1.4,0-2.8,0-4.2,0.1c0,0-0.1,0-0.1,0c-1.4,0.1-2.7,0.2-4.1,0.3c0,0-0.1,0-0.1,0
		c-1.4,0.1-2.7,0.3-4.1,0.5c0,0,0,0,0,0c-6.6,1-13,2.8-19.2,5.4c-0.1,0-0.2,0.1-0.3,0.1c-0.8,0.3-1.6,0.7-2.4,1.1
		c-0.1,0.1-0.2,0.1-0.3,0.2c-5.6,2.6-10.9,5.9-15.7,9.7c10.8-47,7.8-65.5-5.8-131.5c0,0,0-0.1,0-0.1c-1.4-6.4-2.1-12.9-2.1-19.4
		c0-48.8,39.7-88.4,88.4-88.4c24.4,0,48,10.3,64.7,28.2c2.8,3,7.6,3.2,10.6,0.4c3-2.8,3.2-7.6,0.4-10.6
		c-19.5-20.9-47.1-32.9-75.7-32.9c-57,0-103.4,46.4-103.4,103.5c0,7.6,0.8,15.2,2.5,22.6c15.3,74.2,17.3,83.9-1.8,155.2
		c-5.9,11.3-9.3,24.2-9.3,37.8v67.9c0,9.6,7.9,17.5,17.5,17.5h189.1c9.6,0,17.5-7.9,17.5-17.5v-67.9c0-13.6-3.4-26.5-9.3-37.8
		C339.7,263.7,341.7,254,357,179.8z M205.4,309c0.2-0.1,0.4-0.1,0.5-0.2c0.2-0.1,0.3-0.1,0.5-0.2c0.8-0.3,1.7-0.5,2.6-0.7
		c0.2,0,0.3-0.1,0.5-0.1c1-0.2,2-0.5,3-0.7c0,0,0,0,0.1,0c2.1-0.4,4.2-0.8,6.4-1c0.2,0,0.4,0,0.7-0.1c0.1,0,0.1,0,0.2,0
		c2.1,9.9,8.2,18.5,16.9,23.8l-5,27.3L205.4,309z M243.2,378l9.3-51c0.6-3.5-1.3-7-4.6-8.3c-6-2.4-10.5-7.2-12.6-13h41.5
		c-2.1,5.8-6.6,10.6-12.6,13c-3.3,1.3-5.3,4.8-4.6,8.3l9.3,51L256,401.4L243.2,378z M280.2,357.2l-5-27.3
		c8.7-5.3,14.8-13.9,16.9-23.8c0.1,0,0.2,0,0.2,0c0.2,0,0.4,0,0.7,0.1c2.2,0.2,4.3,0.6,6.4,1c0,0,0,0,0.1,0c1,0.2,2,0.4,3,0.7
		c0.2,0,0.3,0.1,0.5,0.1c0.9,0.2,1.7,0.5,2.6,0.7c0.2,0.1,0.3,0.1,0.5,0.2c0.2,0.1,0.4,0.1,0.5,0.2L280.2,357.2z M353,440.7
		c0,1.4-1.1,2.5-2.5,2.5H161.5c-1.4,0-2.5-1.1-2.5-2.5v-67.9c0-24.4,13.1-45.9,32.7-57.6l57.7,105.4c1.3,2.4,3.8,3.9,6.6,3.9
		c2.7,0,5.3-1.5,6.6-3.9l57.7-105.4c19.6,11.7,32.7,33.1,32.7,57.6V440.7z"/>
	<path class="st0" d="M327.7,199.5c-28.7-7.4-55.3-21.2-76.9-39.7c-18.3-15.7-32.8-34.7-41-53.7c-1-2.3-3.1-4-5.6-4.4
		c-2.5-0.4-5.1,0.4-6.8,2.3c-12.4,13.4-19.2,30.9-19.2,49.1v45.7c0,42.9,34.9,77.8,77.8,77.8c39.7,0,72.9-29.7,77.3-69.1
		C333.7,203.9,331.3,200.4,327.7,199.5z M256,261.6c-34.6,0-62.8-28.2-62.8-62.8v-45.7c0-10.6,2.9-20.9,8.3-29.8
		c18.5,33.8,56.8,71.6,115.8,88.9C311.2,240.8,285.9,261.6,256,261.6z"/>
</g>
</svg>
