<?xml version="1.0" encoding="utf-8"?>
<!-- Generator: Adobe Illustrator 21.1.0, SVG Export Plug-In . SVG Version: 6.00 Build 0)  -->
<svg version="1.1" id="Capa_1" xmlns="http://www.w3.org/2000/svg" xmlns:xlink="http://www.w3.org/1999/xlink" x="0px" y="0px"
	 viewBox="0 0 512 512" style="enable-background:new 0 0 512 512;" xml:space="preserve">
<style type="text/css">
	.st0{fill:#F6F4E4;}
</style>
<g>
	<g>
		<path class="st0" d="M0,0v512h512V0H0z M482,482H30V30h452V482z"/>
	</g>
</g>
<g>
	<g>
		<path class="st0" d="M229.2,181.6h-72.2V352h33.1v-57.1h40.3c29.5,0,53-25.7,53-56.6C283.4,212,262.2,181.6,229.2,181.6z
			 M228.5,265.8h-38.4v-55.2h37c14.1,0,22.8,13.2,22.8,27.6C249.8,255,240.1,265.8,228.5,265.8z"/>
	</g>
</g>
<g>
	<g>
		<path class="st0" d="M378.2,254.1v-29.3c-29-3.1-43.1,24-45.4,28.3v-26.9h-29.5V352h32.2v-76.1
			C338.9,268.7,349.9,254.1,378.2,254.1L378.2,254.1z"/>
	</g>
</g>
</svg>
