<?xml version="1.0" encoding="utf-8"?>
<!-- Generator: Adobe Illustrator 21.1.0, SVG Export Plug-In . SVG Version: 6.00 Build 0)  -->
<svg version="1.1" id="Layer_1_1_" xmlns="http://www.w3.org/2000/svg" xmlns:xlink="http://www.w3.org/1999/xlink" x="0px" y="0px"
	 viewBox="0 0 64 64" style="enable-background:new 0 0 64 64;" xml:space="preserve">
<style type="text/css">
	.st0{fill:#F6F4E4;}
</style>
<g>
	<path class="st0" d="M48,34c0-0.3-0.1-0.5-0.3-0.7L47.4,33l0.3-0.3c0.2-0.2,0.3-0.4,0.3-0.7v-3.6l11.7-11.7l-1.4-1.4L52,21.6
		L42.4,12l6.3-6.3l-1.4-1.4L35.6,16H32c-0.3,0-0.5,0.1-0.7,0.3L31,16.6l-0.3-0.3l-0.4-0.4l-3.6-3.6C26.5,12.1,26.3,12,26,12h-1.6
		l-7.7-7.7l-1.4,1.4L17.6,8L8,17.6l-2.3-2.3l-1.4,1.4l7.7,7.7V30c0,0.3,0.1,0.5,0.3,0.7l2.7,2.7v3.2L4.3,47.3l1.4,1.4l5.3-5.3
		l9.6,9.6l-5.3,5.3l1.4,1.4L27.4,49H31c0.3,0,0.5-0.1,0.7-0.3l0.7-0.7h3.2l11.7,11.7l1.4-1.4L42.4,52l9.6-9.6l6.3,6.3l1.4-1.4
		L48,35.6V34z M41,13.4l9.6,9.6L47,26.6L37.4,17L41,13.4z M35.6,18L46,28.4v3.2L32.4,18H35.6z M46,34.4v1.2L35.6,46h-3.2L27,40.6
		v-1.2l1.3,1.3l1.4-1.4L18.3,27.9c-0.2-0.2-0.3-0.5-0.3-0.8c0-0.6,0.5-1.1,1.1-1.1c0.3,0,0.6,0.1,0.8,0.3l7.4,7.4l1.4-1.4l-7.4-7.4
		c-0.2-0.2-0.3-0.5-0.3-0.8c0-0.6,0.5-1.1,1.1-1.1c0.3,0,0.6,0.1,0.8,0.3l7.4,7.4l1.4-1.4l-7.4-7.4c-0.2-0.2-0.3-0.5-0.3-0.8
		c0-0.6,0.5-1.1,1.1-1.1c0.3,0,0.6,0.1,0.8,0.3l7.4,7.4l1.4-1.4l-7.4-7.4c-0.2-0.2-0.3-0.5-0.3-0.8c0-0.6,0.5-1.1,1.1-1.1
		c0.3,0,0.6,0.1,0.8,0.3l0.4,0.4L46,34.4z M19,9.4l3.6,3.6L13,22.6L9.4,19L19,9.4z M14,24.4L24.4,14h1.2l1.3,1.3
		c-1.1,0.5-1.8,1.5-1.8,2.7c-1.6,0.1-2.9,1.4-3,3c-1.6,0.1-2.9,1.4-3,3c-1.7,0.1-3,1.4-3,3.1c0,0.8,0.3,1.6,0.9,2.2l0.7,0.7L16,31.6
		l-2-2V24.4z M22,51.6L12.4,42l3.6-3.6l9.6,9.6L22,51.6z M27.4,47L17,36.6v-3.2l2-2l6,6V41c0,0.3,0.1,0.5,0.3,0.7l5.3,5.3H27.4z
		 M41,50.6L37.4,47l9.6-9.6l3.6,3.6L41,50.6z"/>
	<rect x="44.6" y="41" transform="matrix(0.7071 -0.7071 0.7071 0.7071 -16.2256 44.828)" class="st0" width="2.8" height="2"/>
	<rect x="20" y="45.6" transform="matrix(0.7071 -0.7071 0.7071 0.7071 -27.0833 28.6148)" class="st0" width="2" height="2.8"/>
	<rect x="16.6" y="13" transform="matrix(0.7071 -0.7071 0.7071 0.7071 -4.6275 16.8283)" class="st0" width="2.8" height="2"/>
	<rect x="41" y="16.6" transform="matrix(0.7071 -0.7071 0.7071 0.7071 -0.4267 34.9703)" class="st0" width="2" height="2.8"/>
</g>
</svg>
